<?xml version="1.0" encoding="utf-8"?>
<!-- Generator: Adobe Illustrator 19.2.1, SVG Export Plug-In . SVG Version: 6.00 Build 0)  -->
<svg version="1.1" id="Layer_1" xmlns="http://www.w3.org/2000/svg" xmlns:xlink="http://www.w3.org/1999/xlink" x="0px" y="0px"
	 viewBox="0 0 32 32" style="enable-background:new 0 0 32 32;" xml:space="preserve">
<path d="M32,15.3h-3.6C28.1,9,23,3.9,16.7,3.6V0h-1.4v3.6C9,3.9,3.9,9,3.6,15.3H0v1.4h3.6C3.9,23,9,28.1,15.3,28.4V32h1.4v-3.6
	C23,28.1,28.1,23,28.4,16.7H32V15.3z M16.7,27v-2.3h-1.4V27C9.8,26.7,5.3,22.2,5,16.7h2.3v-1.4H5C5.3,9.8,9.8,5.3,15.3,5v2.3h1.4V5
	c5.5,0.4,9.9,4.8,10.3,10.3h-2.3v1.4H27C26.7,22.2,22.2,26.7,16.7,27z"/>
</svg>
