<svg xmlns="http://www.w3.org/2000/svg" x="0px" y="0px"
     viewBox="0 0 32 32" style="enable-background:new 0 0 32 32;" >
    <g fill-rule="evenodd">
        <path d="M24.687 4.952a15.773 15.773 0 0 0-3.76-.687l.126-2.11c1.45.087 2.888.35 4.267.78l-.633 2.017zm-11.23.67l-.868-1.929a17.915 17.915 0 0 1 4.14-1.28l.377 2.08a15.823 15.823 0 0 0-3.65 1.129zm17.724 3.26a15.915 15.915 0 0 0-3.01-2.358l1.099-1.808a18.039 18.039 0 0 1 3.408 2.671l-1.497 1.495zM7.479 10.29L5.815 8.983a18.084 18.084 0 0 1 3.064-3.055l1.308 1.664a15.972 15.972 0 0 0-2.708 2.698zm27.63 5.076a15.674 15.674 0 0 0-1.569-3.479l1.812-1.097a17.814 17.814 0 0 1 1.78 3.95l-2.023.626zm-30.76 1.83l-2.083-.381a17.803 17.803 0 0 1 1.298-4.133l1.929.875a15.675 15.675 0 0 0-1.145 3.64zm33.289 6.185l-2.082-.387a15.813 15.813 0 0 0 .241-3.81l1.053-.127 1.058-.048-1.058.048 1.059-.027a17.969 17.969 0 0 1-.271 4.35zM2.77 25.387A17.915 17.915 0 0 1 2 21.131l2.113-.124c.076 1.278.304 2.543.679 3.756l-2.022.624zm31.304 5.816l-1.66-1.31a15.872 15.872 0 0 0 1.992-3.259l1.927.876a17.906 17.906 0 0 1-2.26 3.693zM7.206 32.747a18.078 18.078 0 0 1-2.666-3.41l1.814-1.091a15.92 15.92 0 0 0 2.353 3.008l-1.501 1.493zm20.082 3.734l-.862-1.93a15.813 15.813 0 0 0 3.273-1.966l1.303 1.666a17.909 17.909 0 0 1-3.714 2.23zm-12.73.733a17.937 17.937 0 0 1-3.949-1.79l1.102-1.805a15.785 15.785 0 0 0 3.482 1.577l-.635 2.018zm5.382.823c-.375 0-.75-.013-1.119-.035l.133-2.11a16.01 16.01 0 0 0 3.817-.22l.375 2.08a18.172 18.172 0 0 1-3.206.285zM28.065 20.255c0 4.376-3.552 7.92-7.935 7.92-4.381 0-7.932-3.544-7.932-7.92 0-4.375 3.55-7.921 7.932-7.921 4.383 0 7.935 3.546 7.935 7.921"/>
        <path d="M8.142 4.916a3.374 3.374 0 0 0-3.374 3.367 3.376 3.376 0 0 0 6.748 0 3.374 3.374 0 0 0-3.374-3.367"/>
    </g>
</svg>