<svg xmlns="http://www.w3.org/2000/svg">
    <defs>
        <path id="a" d="M39.884 39.633H0V.115h39.884v39.518V.115H0v39.519h39.884z"/>
    </defs>
    <g fill-rule="evenodd">
        <path d="M19.942 5.989C12.088 5.989 5.7 12.318 5.7 20.1s6.39 14.112 14.243 14.112c7.854 0 14.243-6.329 14.243-14.112S27.796 5.989 19.942 5.989m0 30.107c-8.9 0-16.142-7.176-16.142-15.995 0-8.82 7.242-15.994 16.142-15.994 8.902 0 16.145 7.175 16.145 15.994 0 8.819-7.243 15.995-16.145 15.995M23.405 2.552a18.3 18.3 0 0 0-3.463-.328l-.06-1.882h.06c1.288 0 2.575.122 3.826.364l-.363 1.846zM12.99 3.6l-.734-1.737a19.943 19.943 0 0 1 3.74-1.131l.372 1.843c-1.156.229-2.29.576-3.378 1.025zm16.924 1.6a17.888 17.888 0 0 0-3.123-1.643l.722-1.742c1.202.49 2.365 1.1 3.453 1.818l-1.052 1.568zM7.15 7.495L5.804 6.166A20.15 20.15 0 0 1 8.815 3.7l1.062 1.564c-.976.65-1.894 1.4-2.727 2.229zm27.757 2.616a18.165 18.165 0 0 0-2.253-2.697l1.336-1.335a19.77 19.77 0 0 1 2.491 2.984l-1.574 1.048zM3.252 13.3l-1.757-.72a19.772 19.772 0 0 1 1.839-3.416l1.579 1.043a17.825 17.825 0 0 0-1.66 3.093zm34.374 3.239a17.672 17.672 0 0 0-1.039-3.346l1.754-.727c.504 1.19.89 2.435 1.147 3.704l-1.862.369zM0 20.139v-.038c0-1.28.127-2.565.372-3.81l1.864.361a17.9 17.9 0 0 0-.337 3.45L0 20.14zm39.506 3.814l-1.865-.364c.23-1.142.344-2.316.344-3.488l1.899-.08v.08c0 1.293-.127 2.59-.378 3.852zM1.528 27.697a19.506 19.506 0 0 1-1.14-3.703l1.863-.367c.23 1.143.576 2.27 1.03 3.346l-1.753.724zm35.002 3.376l-1.578-1.045a18.088 18.088 0 0 0 1.667-3.09l1.753.721a19.75 19.75 0 0 1-1.842 3.414zM5.865 34.095a19.959 19.959 0 0 1-2.486-2.986l1.577-1.05a17.975 17.975 0 0 0 2.248 2.703l-1.34 1.333zm25.17 2.428l-1.059-1.563a17.982 17.982 0 0 0 2.731-2.224l1.343 1.329a20.066 20.066 0 0 1-3.014 2.458zm-18.701 1.848a19.952 19.952 0 0 1-3.447-1.824l1.054-1.565c.982.65 2.033 1.204 3.118 1.65l-.725 1.74zm11.514 1.11l-.368-1.848a17.746 17.746 0 0 0 3.38-1.017l.73 1.741a20.224 20.224 0 0 1-3.742 1.124zm-3.845.38h-.061c-1.302 0-2.603-.126-3.868-.37l.369-1.848c1.125.22 2.285.332 3.447.334h.071v.95l.098.927-.056.007z"
        />
        <path d="M15.867 25.471l-1.345-1.332 9.498-9.409 1.342 1.333z"/>
        <path d="M24.02 25.471l-9.497-9.408 1.343-1.333 9.495 9.409z"/>
    </g>
</svg>