<?xml version="1.0" encoding="utf-8"?>
<!-- Generator: Adobe Illustrator 19.2.1, SVG Export Plug-In . SVG Version: 6.00 Build 0)  -->
<svg version="1.1" id="Layer_1" xmlns="http://www.w3.org/2000/svg" xmlns:xlink="http://www.w3.org/1999/xlink" x="0px" y="0px"
	 viewBox="0 0 32 32" style="enable-background:new 0 0 32 32;" xml:space="preserve">
<polygon points="20.3,7.4 20.3,9.1 22.8,9.1 19.1,12.9 20.3,14.1 24.1,10.4 24.1,12.9 25.8,12.9 25.8,7.4 "/>
<polygon points="12.5,18.7 8.7,22.4 8.7,19.9 7,19.9 7,25.4 12.5,25.4 12.5,23.7 10,23.7 13.7,19.9 "/>
<path d="M16,32C7.2,32,0,24.8,0,16S7.2,0,16,0s16,7.2,16,16S24.8,32,16,32z M16,1.7C8.1,1.7,1.7,8.1,1.7,16S8.1,30.3,16,30.3
	S30.3,23.9,30.3,16S23.9,1.7,16,1.7z"/>
</svg>
