<svg x="0px" y="0px"
     viewBox="0 0 32 32" style="enable-background:new 0 0 32 32;"  xmlns="http://www.w3.org/2000/svg"
     xmlns:xlink="http://www.w3.org/1999/xlink">
    <defs>
        <path id="a" d="M2.759 4.458V.53H.026v3.927H2.76z"/>
    </defs>
    <g fill-rule="evenodd">
        <path d="M6.394 14.988l.093.02c.293.05.585.103.88.154.295.05.595.096.89.145l.9.135.91.121c.303.039.61.075.92.113a86.692 86.692 0 0 0 1.858.19c.311.025.624.054.94.076.316.023.633.046.948.065a57.985 57.985 0 0 0 1.918.1 77.299 77.299 0 0 0 1.946.048c.326.005.654.005.985.005.329 0 .656 0 .981-.005.326-.003.653-.01.977-.017.324-.01.65-.019.97-.031a52.333 52.333 0 0 0 1.916-.1c.32-.019.638-.042.952-.065.313-.022.63-.05.94-.077a93.956 93.956 0 0 0 1.863-.189c.306-.038.611-.074.915-.113l.909-.121.899-.135c.3-.049.596-.094.89-.145.296-.051.591-.104.88-.155l.096-.019c.577 1.54.908 3.194.908 4.932 0 .169-.02.331-.027.496-.433.09-.87.176-1.314.26a71.02 71.02 0 0 1-3.48.54c-.595.077-1.19.144-1.796.206a73.917 73.917 0 0 1-3.683.283 76.316 76.316 0 0 1-7.591 0 73.192 73.192 0 0 1-5.479-.49 50.965 50.965 0 0 1-1.76-.25 73.488 73.488 0 0 1-1.723-.289c-.443-.084-.88-.17-1.316-.26-.005-.167-.024-.327-.024-.496 0-1.738.33-3.393.909-4.932m23.038-5.132c-.193.029-.382.058-.575.084-.595.077-1.19.145-1.796.205-.603.064-1.212.119-1.827.164a67.93 67.93 0 0 1-3.743.19 76.702 76.702 0 0 1-5.704-.071 67.333 67.333 0 0 1-1.857-.119 60.04 60.04 0 0 1-1.829-.164 60.807 60.807 0 0 1-1.793-.205c-.194-.026-.386-.055-.578-.084a14.037 14.037 0 0 1 9.852-4.03c3.83 0 7.308 1.539 9.85 4.03m-19.364 1.947a72.703 72.703 0 0 0 3.717.38c.63.048 1.266.09 1.905.122a80.672 80.672 0 0 0 3.892.1 76.743 76.743 0 0 0 7.672-.39 64.68 64.68 0 0 0 1.842-.212 77.348 77.348 0 0 0 1.798-.254c.396.53.767 1.083 1.087 1.672-.167.03-.335.058-.502.086-.285.052-.574.096-.863.142-.29.045-.582.087-.875.132-.292.041-.587.08-.885.115-.296.042-.596.077-.893.113-.298.031-.6.067-.902.096-.3.032-.604.06-.91.087-.305.03-.61.051-.917.077-.305.022-.614.045-.926.064-.309.02-.618.038-.934.055-.31.012-.622.029-.938.041-.313.013-.629.02-.945.03l-.953.019a88.58 88.58 0 0 1-1.914 0l-.953-.02c-.316-.01-.63-.016-.946-.029-.315-.012-.627-.029-.941-.041-.31-.017-.62-.036-.933-.055-.307-.02-.616-.042-.92-.064-.31-.026-.615-.048-.92-.077a48.296 48.296 0 0 1-.91-.087c-.302-.029-.601-.065-.898-.096-.3-.036-.6-.07-.895-.113a37.876 37.876 0 0 1-.886-.115c-.292-.045-.583-.087-.874-.132-.291-.046-.578-.09-.866-.142a75.918 75.918 0 0 1-.5-.086c.32-.589.69-1.142 1.085-1.672.594.09 1.195.177 1.801.254m1.881 19.95c.609.061 1.218.12 1.836.165a74.075 74.075 0 0 0 5.797.218 76.804 76.804 0 0 0 3.89-.096 92.863 92.863 0 0 0 1.906-.122 70.796 70.796 0 0 0 1.835-.164 13.974 13.974 0 0 1-7.63 2.262 13.98 13.98 0 0 1-7.634-2.262m-1.881-3.034a75.202 75.202 0 0 0 5.622.501c.64.032 1.286.055 1.934.07a76.511 76.511 0 0 0 7.754-.191 76.545 76.545 0 0 0 3.717-.38 68.453 68.453 0 0 0 1.659-.238c-.28.367-.576.714-.887 1.048-.338.048-.67.1-1.01.145-.595.073-1.19.145-1.796.205a69.188 69.188 0 0 1-3.683.279c-.623.036-1.252.058-1.887.075a76.702 76.702 0 0 1-3.82 0 60.403 60.403 0 0 1-1.884-.075 54.29 54.29 0 0 1-1.857-.114 70.365 70.365 0 0 1-3.622-.37c-.34-.046-.674-.097-1.011-.145a13.48 13.48 0 0 1-.887-1.048c.548.087 1.1.164 1.658.238m-4.356-6.35c.26.051.515.106.775.155a69.557 69.557 0 0 0 3.581.555 72.702 72.702 0 0 0 5.622.5c.64.033 1.286.059 1.934.076.647.015 1.3.024 1.958.024.656 0 1.31-.01 1.958-.024a79.982 79.982 0 0 0 3.838-.196 73.475 73.475 0 0 0 3.718-.38c.61-.077 1.212-.164 1.808-.258a66.807 66.807 0 0 0 1.772-.297c.262-.049.516-.104.774-.155a13.969 13.969 0 0 1-1.34 3.982c-.496.09-.991.173-1.494.254a64.23 64.23 0 0 1-1.759.247c-.595.077-1.19.147-1.796.208-.603.062-1.212.116-1.827.164a81.13 81.13 0 0 1-1.856.116c-.623.033-1.252.058-1.887.07a67.855 67.855 0 0 1-3.82 0 56.474 56.474 0 0 1-1.884-.07 80.28 80.28 0 0 1-1.857-.116 76.985 76.985 0 0 1-1.829-.164 60.774 60.774 0 0 1-1.793-.208 63.587 63.587 0 0 1-1.76-.247 80.328 80.328 0 0 1-1.495-.254 13.969 13.969 0 0 1-1.34-3.982m2.675 8.931a15.919 15.919 0 0 0 11.194 4.595A15.92 15.92 0 0 0 30.776 31.3l.128-.02-.014-.086a15.926 15.926 0 0 0 4.668-11.275c0-8.808-7.167-15.975-15.976-15.975-8.81 0-15.975 7.167-15.975 15.975a15.92 15.92 0 0 0 4.665 11.27l-.015.092c.044.005.087.012.131.02M38.926 15.99a19.57 19.57 0 0 0-1.138-3.695l-1.733.726a17.634 17.634 0 0 1 1.026 3.342l1.845-.372zM4.708 10.039L3.144 8.998a19.834 19.834 0 0 0-1.818 3.412l1.738.717c.445-1.08.998-2.117 1.644-3.088M30.49 3.47a19.914 19.914 0 0 0-3.417-1.812l-.713 1.738c1.074.444 2.114.993 3.09 1.64l1.04-1.566zM16.043 2.416L15.674.575a19.404 19.404 0 0 0-3.7 1.13l.725 1.733a18.14 18.14 0 0 1 3.344-1.022M9.62 5.103L8.57 3.54a20.074 20.074 0 0 0-2.979 2.461L6.924 7.33A17.76 17.76 0 0 1 9.62 5.103M2.058 16.476l-1.77-.36C.049 17.36 0 18.64 0 19.92v.039l1.803-.039c0-1.16.035-2.317.255-3.445M23.008 2.394l.358-1.938C22.13.216 20.856 0 19.582 0h-.06l.06 1.972c1.155 0 2.306.203 3.426.42M35.95 8.895a19.794 19.794 0 0 0-2.465-2.98L32.16 7.25c.829.824 1.58 1.73 2.23 2.694l1.559-1.048zM29.513 34.762l1.045 1.561a19.623 19.623 0 0 0 2.985-2.455l-1.33-1.33a17.632 17.632 0 0 1-2.7 2.224M34.434 29.835l1.563 1.044a19.773 19.773 0 0 0 1.825-3.41l-1.738-.72a17.747 17.747 0 0 1-1.65 3.086"/>
        <g transform="translate(37.241 19.31)">
            <mask id="b" fill="#fff">
                <use xlink:href="#a"/>
            </mask>
            <path d="M.537.61c0 1.17-.283 2.343-.51 3.485l2.1.363c.25-1.26.632-2.555.632-3.847V.53L.537.61z"
                  mask="url(#b)"/>
        </g>
        <path d="M23.082 37.435l.367 1.842c1.266-.251 2.51-.63 3.7-1.124l-.722-1.737a17.772 17.772 0 0 1-3.345 1.02M3.191 30.915a19.83 19.83 0 0 0 2.457 2.982l1.327-1.33a18.06 18.06 0 0 1-2.225-2.703l-1.559 1.05zM.23 23.81a19.674 19.674 0 0 0 1.128 3.699l1.735-.724a17.706 17.706 0 0 1-1.02-3.342L.23 23.81zM19.31 38.62h.22c-1.15 0-2.297-.539-3.411-.758l-.365 1.806c1.252.248 2.54.332 3.828.332h.058l-.087-.178-.243-1.098v-.103zM8.64 36.346a19.828 19.828 0 0 0 3.412 1.822l.718-1.735c-1.075-.444-2.115-1-3.086-1.648L8.64 36.346z"
              />
    </g>
</svg>