<svg x="0px" y="0px"
     viewBox="0 0 32 32" style="enable-background:new 0 0 32 32;" xmlns="http://www.w3.org/2000/svg"
     xmlns:xlink="http://www.w3.org/1999/xlink">
    <defs>
        <path id="a" d="M0 39.6h39.978V.012H0V39.6z"/>
    </defs>
    <g  fill-rule="evenodd">
        <path d="M19.99 6.057c-7.873 0-14.277 6.34-14.277 14.137 0 7.797 6.404 14.137 14.278 14.137 7.872 0 14.276-6.34 14.276-14.137 0-7.797-6.404-14.137-14.276-14.137m0 30.16c-8.924 0-16.182-7.188-16.182-16.023S11.067 4.171 19.99 4.171c8.922 0 16.18 7.188 16.18 16.023s-7.258 16.023-16.18 16.023"
              />
        <g transform="translate(0 .388)">
            <mask id="b" fill="#fff">
                <use xlink:href="#a"/>
            </mask>
            <path d="M23.46 2.226a18.276 18.276 0 0 0-3.469-.329L19.93.011h.062c1.291 0 2.58.124 3.833.364l-.363 1.851zM13.02 3.273l-.734-1.737c1.205-.5 2.464-.883 3.747-1.134l.373 1.847c-1.158.23-2.296.576-3.386 1.024zM29.984 4.88a18.01 18.01 0 0 0-3.13-1.648l.722-1.743a20.105 20.105 0 0 1 3.463 1.818l-1.055 1.573zM7.168 7.177l-1.35-1.33c.925-.92 1.94-1.748 3.02-2.47L9.9 4.944a17.968 17.968 0 0 0-2.732 2.233zm27.822 2.62a17.963 17.963 0 0 0-2.259-2.7l1.342-1.339a19.827 19.827 0 0 1 2.495 2.99l-1.578 1.05zM3.26 12.992l-1.76-.72C2 11.078 2.62 9.924 3.341 8.85l1.584 1.044a17.985 17.985 0 0 0-1.665 3.098zm34.455 3.245a17.674 17.674 0 0 0-1.038-3.351l1.753-.728a19.45 19.45 0 0 1 1.15 3.706l-1.865.373zM0 19.845v-.039c0-1.282.128-2.569.374-3.816l1.867.36a17.86 17.86 0 0 0-.335 3.456L0 19.846zm39.6 3.82l-1.87-.365a17.86 17.86 0 0 0 .345-3.494l1.903-.081v.081c0 1.295-.127 2.594-.379 3.858zM1.53 27.415a19.557 19.557 0 0 1-1.142-3.71l1.87-.368a17.548 17.548 0 0 0 1.03 3.353l-1.758.725zm35.085 3.381l-1.58-1.047a18.197 18.197 0 0 0 1.67-3.094l1.76.721a19.88 19.88 0 0 1-1.85 3.42zM5.877 33.824a19.857 19.857 0 0 1-2.488-2.992l1.578-1.05a18.209 18.209 0 0 0 2.256 2.708l-1.346 1.334zm25.231 2.433l-1.06-1.566c.98-.648 1.9-1.399 2.738-2.23l1.346 1.334a19.982 19.982 0 0 1-3.024 2.462zm-18.746 1.851a20.004 20.004 0 0 1-3.455-1.828l1.058-1.567a18.296 18.296 0 0 0 3.126 1.654l-.729 1.741zm11.544 1.112l-.37-1.847c1.159-.23 2.297-.574 3.389-1.022l.73 1.74a19.932 19.932 0 0 1-3.749 1.129zm-3.857.38h-.058c-1.305 0-2.611-.125-3.88-.373l.371-1.851c1.127.223 2.29.335 3.456.339h.073v.95l.098.926-.06.01z"
                   mask="url(#b)"/>
        </g>
        <path
              d="M15.904 13.319l-1.346-1.331 2.856-2.827 1.345 1.331zM14.952 25.574l-1.346-1.335 9.518-9.424 1.347 1.334zM20.663 25.574l-1.346-1.335 9.518-9.424 1.346 1.334zM14 20.861l-1.346-1.334 4.76-4.712 1.345 1.334zM20.663 31.227l-1.346-1.331 4.759-4.713 1.346 1.332z"/>
    </g>
</svg>