<svg x="0px" y="0px"
     viewBox="0 0 32 32" style="enable-background:new 0 0 32 32;" xmlns="http://www.w3.org/2000/svg">
    <g fill-rule="evenodd">
        <path d="M21.992 3.704l-.503-1.717.411-.121c.87-.26 1.768-.532 2.668-.532.308 0 .592.03.865.092l-.398 1.74c-.66-.15-1.628.114-2.62.41l-.423.128zm-2.337.419c-.947 0-1.871-.279-2.767-.547a29.454 29.454 0 0 0-.62-.184l.488-1.72c.213.062.43.126.647.194.913.274 1.744.518 2.526.46l.135 1.782a6.996 6.996 0 0 1-.41.015zm-7.135.443l-1.397-1.112c.608-.767 1.377-1.598 2.458-1.947.36-.119.74-.173 1.16-.173l.015 1.784c-.245 0-.444.03-.625.089-.63.204-1.167.8-1.611 1.359zm15.87 1.996c-.41-.426-.77-.908-1.122-1.372-.381-.504-.74-.984-1.132-1.36l1.24-1.287c.495.473.913 1.033 1.319 1.573.333.44.648.859.981 1.204l-1.287 1.242zM8.096 8.204L7.501 6.52c.691-.245 1.238-.47 1.65-.77.269-.197.553-.48.889-.89l1.381 1.13c-.434.533-.822.914-1.218 1.205-.654.473-1.43.769-2.106 1.01zm25.256.859c-.497-.287-1.106-.497-1.752-.724a16.957 16.957 0 0 1-1.488-.568l.746-1.625c.404.186.852.342 1.329.506.695.242 1.416.492 2.059.863l-.894 1.548zM4.803 10.73l-1.76-.32c.129-.707.361-1.28.709-1.76.583-.797 1.427-1.232 2.012-1.488L6.48 8.8c-.628.275-1.032.563-1.283.902-.186.257-.316.596-.394 1.029zm29.84 2.335l-.015-.58c-.021-.98-.039-1.904-.372-2.548l1.587-.823c.522 1.017.546 2.195.572 3.333l.013.56-1.785.058zM3.896 16.252l-1.556-.877c.145-.259.248-.483.317-.69.204-.633.222-1.418.238-2.249l.001-.104 1.788.038-.003.104c-.02.922-.038 1.878-.324 2.76a5.66 5.66 0 0 1-.461 1.018zm32.915 2.103c-.172-.267-.356-.53-.539-.79-.515-.733-1.044-1.49-1.317-2.33l-.056-.183 1.717-.496.041.138c.187.574.619 1.192 1.078 1.845.197.281.394.565.578.85l-1.502.966zM.03 20.685A3.438 3.438 0 0 1 0 20.2c0-1.29.69-2.39 1.399-3.406l1.464 1.02c-.567.816-1.078 1.613-1.078 2.392-.001.089.006.168.018.25l-1.772.23zm37.706 3.185l-1.501-.975c.681-.97 1.288-1.836 1.288-2.69 0-.165-.021-.329-.067-.503l1.731-.443c.083.32.123.639.123.95 0 1.414-.836 2.606-1.574 3.66zM2.603 25.58c-.211-.541-.61-1.112-1.03-1.71-.274-.392-.549-.786-.786-1.19l1.536-.91c.216.364.465.718.713 1.073.464.663.944 1.347 1.233 2.092l-1.666.645zm33.8 2.875l-1.787-.055.012-.473c.02-.92.04-1.87.327-2.75.068-.217.158-.431.262-.647l1.606.784a3.24 3.24 0 0 0-.168.413c-.206.63-.222 1.41-.24 2.239l-.012.489zM3.276 30.863c-.339-.913-.361-1.923-.383-2.9a25.293 25.293 0 0 0-.026-.904l1.782-.101c.018.318.026.645.032.969.018.864.036 1.683.268 2.312l-1.673.624zm29.899 2.539l-.655-1.663c.828-.323 1.304-.632 1.592-1.03.144-.198.252-.44.33-.735l1.729.454a3.95 3.95 0 0 1-.614 1.332c-.638.878-1.608 1.339-2.382 1.642zm-25.027.733c-.332-.135-.68-.257-1.03-.379-.837-.29-1.7-.59-2.427-1.094l1.02-1.466c.525.363 1.237.61 1.992.874.378.13.758.262 1.121.412l-.676 1.653zm20.908 1.69l-1.408-1.1c.392-.507.873-1.082 1.459-1.507.566-.412 1.229-.687 1.745-.88l.627 1.672c-.41.156-.93.366-1.32.653-.407.293-.786.752-1.103 1.161zM11.641 37.57a16.352 16.352 0 0 1-1.026-1.272c-.406-.538-.787-1.044-1.202-1.42l1.202-1.323c.537.485.99 1.087 1.426 1.668.31.41.602.797.914 1.133L11.64 37.57zm10.55 1.062l-.286-.085c-.805-.245-1.564-.473-2.248-.473-.185.036-.382.017-.577.048l-.264-1.77c.299-.042.573-.066.839-.066h.002c.947 0 1.871.28 2.763.55l.281.082-.51 1.714zm-7.45.446c-.421 0-.802-.058-1.164-.176-.054-.016-.116-.04-.173-.062l.644-1.665.085.03c.679.217 1.696-.051 2.76-.369l.324.834.191.877c-.87.26-1.768.53-2.667.53zm9.828 0c-.154 0-.31-.008-.466-.024l.168-1.778c.338.03.648.012.908-.07.448-.147.877-.483 1.394-1.098l1.364 1.155c-.501.593-1.205 1.317-2.209 1.641-.36.119-.739.174-1.159.174zM18.746 14.016l-.518-3.535c.472-.068.98-.12 1.43-.104.272 0 .541.012.81.033l-.3 3.563c-.174-.016-.32-.04-.528-.021-.3 0-.6.021-.894.064zm4.71 1.225a6.334 6.334 0 0 0-1.224-.736l1.478-3.255c.68.31 1.325.698 1.92 1.152l-2.174 2.84zm-7.908.247L13.2 12.793a10.005 10.005 0 0 1 1.843-1.268l1.681 3.153a6.32 6.32 0 0 0-1.175.81zm9.991 2.594a6.142 6.142 0 0 0-.633-1.274l2.996-1.946c.408.626.744 1.302.998 2.004l-3.36 1.216zm-11.89.372l-3.433-.998c.21-.718.502-1.41.87-2.066l3.114 1.754c-.234.413-.42.856-.552 1.31zm15.58 3.976l-3.48-.806c.106-.462.16-.939.16-1.418l3.574-.034v.034c0 .748-.085 1.496-.253 2.224zm-19.003.562a9.882 9.882 0 0 1-.382-2.208l3.566-.208c.03.476.112.95.245 1.405l-3.43 1.01zm16.281 4.256l-2.492-2.56c.341-.334.647-.706.904-1.103l3.005 1.933a9.868 9.868 0 0 1-1.417 1.73zm-13.277.394a9.917 9.917 0 0 1-1.519-1.646L14.6 23.89c.28.382.605.736.967 1.048l-2.336 2.704zm8.384 2.194l-.71-3.502c.466-.094.92-.24 1.354-.44l1.488 3.248a9.56 9.56 0 0 1-2.132.694zm-3.344.101a9.886 9.886 0 0 1-2.168-.565l1.29-3.334c.442.171.906.294 1.378.36l-.5 3.54zM19.655 17.526a2.683 2.683 0 0 0-2.68 2.68 2.682 2.682 0 0 0 5.361 0 2.684 2.684 0 0 0-2.681-2.68m0 7.147a4.472 4.472 0 0 1-4.467-4.467 4.473 4.473 0 0 1 4.467-4.468 4.473 4.473 0 0 1 4.466 4.468 4.472 4.472 0 0 1-4.466 4.467"/>
    </g>
</svg>